<?xml version="1.0" encoding="UTF-8"?>
<svg width="317px" height="113px" viewBox="0 0 317 113" version="1.1" xmlns="http://www.w3.org/2000/svg" xmlns:xlink="http://www.w3.org/1999/xlink">
    <!-- Generator: Sketch 50 (54983) - http://www.bohemiancoding.com/sketch -->
    <title>Logo</title>
    <desc>Created with Sketch.</desc>
    <defs>
        <filter x="-13.7%" y="-57.7%" width="127.4%" height="215.4%" filterUnits="objectBoundingBox" id="filter-1">
            <feOffset dx="0" dy="0" in="SourceAlpha" result="shadowOffsetOuter1"></feOffset>
            <feGaussianBlur stdDeviation="12.5" in="shadowOffsetOuter1" result="shadowBlurOuter1"></feGaussianBlur>
            <feColorMatrix values="0 0 0 0 1   0 0 0 0 1   0 0 0 0 1  0 0 0 1 0" type="matrix" in="shadowBlurOuter1" result="shadowMatrixOuter1"></feColorMatrix>
            <feMerge>
                <feMergeNode in="shadowMatrixOuter1"></feMergeNode>
                <feMergeNode in="SourceGraphic"></feMergeNode>
            </feMerge>
        </filter>
    </defs>
    <g id="Website" stroke="none" stroke-width="1" fill="none" fill-rule="evenodd" opacity="0.746484375">
        <g id="Mobile" transform="translate(0.000000, -24.000000)">
            <g id="Logo" filter="url(#filter-1)" transform="translate(23.000000, 48.000000)">
                <path d="M180.704196,24.5942734 C186.103374,32.5016306 173.623307,39.4531535 161.851328,39.2793654 C171.49904,47.0998286 158.664928,65 139.103971,65 C107.32848,65 110.957435,30.0685976 142.644416,26.7666243 C141.051215,24.5942734 140.166104,21.6398762 140.166104,18.946161 C140.431638,6.60720797 156.098106,-0.170526825 167.073484,0.00326124688 C171.941596,0.0901552827 177.694818,1.828036 177.694818,7.64993639 C177.694818,10.9519098 175.305018,14.080095 172.29564,14.080095 C169.90584,14.080095 168.047106,12.1684263 168.135618,9.90918132 C168.224129,7.56304236 169.994351,5.91205568 172.384151,5.99894971 C173.446285,5.99894971 175.039485,6.78099604 175.305018,7.56304236 C176.013107,3.65281075 172.561173,2.43629425 169.374773,2.34940021 C164.683684,2.26250618 158.04535,4.43485707 152.115105,9.47471115 C148.043594,13.0373666 142.909949,20.8578298 145.653794,26.5059422 C147.512527,26.5059422 150.344883,26.158366 153.000216,26.3321541 C158.133861,26.7666243 158.930461,31.8064783 152.734683,31.8064783 C148.840194,31.8064783 145.653794,29.8079155 143.79506,27.9831408 C122.817925,31.024432 118.48088,63.8703775 139.103971,63.8703775 C151.584039,63.8703775 160.169617,53.7906694 160.523661,46.9260406 C160.966217,37.2808026 136.802682,37.4545907 135.120971,47.3605107 C134.678415,50.0542258 136.448637,53.0086231 140.962704,55.354762 C141.936327,55.8761262 142.024838,57.700901 140.962704,57.1795368 C125.473259,49.0114974 130.075837,36.4987563 148.043594,36.4987563 L163.710062,36.4987563 C167.870084,36.4987563 184.421663,32.1540545 179.730574,25.2894257 C179.110996,24.3335913 180.084618,23.638439 180.704196,24.5942734 Z M152.911705,27.8093527 C150.610416,27.6355646 148.486149,27.6355646 146.361883,27.7224587 C147.689549,29.3734453 149.813816,30.3292797 152.734683,30.3292797 C157.071728,30.3292797 156.098106,28.0700348 152.911705,27.8093527 Z" id="&amp;" fill="#E4A897"></path>
                <path d="M258.723186,46.0968313 C259.288271,44.9518716 259.8665,43.8194988 260.472818,42.704699 C261.606666,40.6092686 262.17359,39.867137 263.569096,39.9544466 C264.13602,39.9981014 264.790163,40.2600302 265.400697,40.1290658 C264.09241,40.8275426 261.693885,45.1930225 260.123942,48.336168 C260.996132,47.2447981 262.391638,45.5859157 263.743534,44.4072361 C265.836792,42.5300798 270.328575,39.7798274 271.8113,40.303685 C271.8113,40.303685 267.145079,48.5107872 266.578154,51.5666232 C266.229278,53.3564699 266.708983,53.7493631 267.275907,53.7493631 C269.543604,53.7493631 272.334615,48.0305845 273.250415,46.1970829 C273.599292,45.4112965 274.297044,45.7168801 273.860949,46.5899761 C272.552662,49.2529188 270.023309,54.7970783 266.665374,54.7970783 C265.139039,54.7970783 263.045781,53.7493631 264.354068,49.6894668 C264.702944,48.554442 265.531525,47.0701789 266.752593,45.1057129 C267.799222,43.4031758 267.01425,42.2244962 263.656315,45.3676417 C262.17359,46.7209405 260.036722,49.1656092 257.594588,54.0112919 C257.245711,54.6224591 256.853225,54.6661139 255.937425,54.6661139 C255.283282,54.7097687 254.890796,54.6661139 254.4547,54.9280427 C254.810925,54.2222832 255.158309,53.5165237 255.500076,52.81184 C254.595915,53.871208 253.628367,54.6295474 252.666709,54.7097687 C251.227594,54.7970783 249.177945,53.6620535 250.486232,49.0782996 C249.788479,50.2133244 248.611021,51.9595164 247.346344,53.1818507 C244.194913,56.1993909 241.71507,54.3040798 241.94116,50.5181044 C240.601432,52.7715768 238.903643,54.7970783 236.880053,54.7970783 C235.353719,54.7970783 233.260461,53.7493631 234.568747,49.6894668 C234.917623,48.554442 235.746205,47.0701789 236.967272,45.1057129 C238.013901,43.4031758 237.228929,42.2244962 233.870994,45.3676417 C232.38827,46.7209405 230.251402,49.1656092 227.765658,54.0112919 C227.460391,54.6224591 227.067905,54.6661139 226.152104,54.6661139 C225.497961,54.7097687 225.105475,54.6661139 224.66938,54.9280427 C224.978484,54.286272 225.292932,53.6324673 225.612254,52.9684129 C225.478571,53.1103513 225.339229,53.2534378 225.192694,53.4001247 C222.837779,55.6701743 218.520434,54.9280427 219.174577,50.1260148 C219.201153,49.9250123 219.233327,49.7158037 219.270652,49.4993647 C217.876441,51.9600323 216.029145,54.5574394 214.203089,54.7097687 C212.763974,54.7970783 210.714325,53.6620535 212.022611,49.0782996 C211.324858,50.2133244 210.147401,51.9595164 208.882724,53.1818507 C203.867626,57.9838786 200.5533,50.3442888 207.138342,42.4427702 C209.754915,39.3432794 214.770013,37.7280519 217.255757,40.4346494 C217.866291,41.0894714 217.517414,41.831603 216.776052,41.7006386 C216.296347,40.085411 214.682794,39.7361726 213.06924,40.6092686 C211.106811,41.7006386 208.839114,44.2762717 207.269171,46.8519049 C206.920294,47.4630721 205.742836,49.6021572 205.481179,51.2610396 C205.045084,54.3168755 207.443609,53.9676371 209.493258,51.5229684 C211.019592,49.6894668 212.240659,47.5503817 213.374507,45.4112965 C214.333917,43.577795 214.944451,42.5300798 216.339956,42.6173894 C216.90688,42.6610442 217.561024,42.922973 218.171557,42.7920086 C217.255757,43.7087594 214.682794,48.2925132 214.115869,50.955456 C213.766993,52.7453028 213.985041,53.5747439 214.551965,53.5747439 C216.212786,53.6539127 218.734158,49.1028196 219.872682,46.8539246 C220.570744,44.2693833 221.624166,41.3168403 222.576122,38.9940411 L220.308425,38.9940411 C219.82872,38.9940411 219.915939,38.0336355 220.395644,38.0336355 L223.012217,38.0336355 C224.015237,35.8508955 225.105475,33.7118104 226.195714,31.834654 C229.204773,26.5524233 233.914604,27.2945549 230.687497,34.2793228 C230.076964,35.5889667 229.46643,36.8113011 228.812287,38.0336355 L230.905545,38.0336355 C231.341641,38.0336355 231.254421,38.9940411 230.818326,38.9940411 L228.288972,38.9940411 C226.806248,41.5260194 225.061866,43.8397237 222.488903,46.1970829 C222.096417,47.3321077 221.485883,50.6498724 221.485883,50.6498724 C220.83174,53.5747439 222.837779,53.9676371 224.276894,52.9199219 C225.673986,51.8862175 226.7961,50.2384669 227.746357,48.5370366 C230.542172,42.7503306 233.602089,36.5267577 236.662005,30.8742484 C237.665025,29.0407469 238.362778,28.0366865 239.758283,28.1239961 C240.325207,28.1676509 240.97935,28.3859249 241.589884,28.2986153 C239.671064,30.2630813 234.001823,40.958507 230.42584,48.2488585 C231.603298,46.7645953 232.780756,45.4112965 233.958213,44.4072361 C236.051472,42.5300798 240.543255,39.7798274 242.02598,40.303685 C242.02598,40.303685 237.359758,48.5107872 236.792834,51.5666232 C236.443958,53.3564699 236.880053,53.8366727 237.446977,53.8803275 C239.005382,53.9820681 241.142796,50.421724 242.44846,47.9476413 C242.999691,46.2421511 244.012421,44.3500916 245.601962,42.4427702 C248.218535,39.3432794 253.233633,37.7280519 255.719377,40.4346494 C256.329911,41.0894714 255.981035,41.831603 255.239672,41.7006386 C254.759967,40.085411 253.146414,39.7361726 251.532861,40.6092686 C249.570431,41.7006386 247.302735,44.2762717 245.732791,46.8519049 C245.383915,47.4630721 244.206457,49.6021572 243.9448,51.2610396 C243.508704,54.3168755 245.907229,53.9676371 247.956878,51.5229684 C249.483212,49.6894668 250.704279,47.5503817 251.838128,45.4112965 C252.797538,43.577795 253.408071,42.5300798 254.803577,42.6173894 C255.370501,42.6610442 256.024644,42.922973 256.635178,42.7920086 C255.719377,43.7087594 253.146414,48.2925132 252.57949,50.955456 C252.230614,52.7453028 252.448661,53.5747439 253.015585,53.5747439 C254.847186,53.6620535 257.725416,48.1178941 258.641217,46.2407377 C258.667502,46.1881136 258.69496,46.1401885 258.723186,46.0968313 Z M208.926333,25.4610534 C208.839114,30.6559744 203.300702,38.1645999 198.983357,47.5940365 C195.014888,56.2813415 196.497613,61.6508818 201.51271,59.3371774 C204.521769,57.9402238 203.736797,61.1270242 200.5533,60.9960598 C194.622402,60.734131 192.87802,56.7615443 195.232936,49.6894668 C196.75927,45.1493677 204.783426,30.4377004 205.481179,25.9412561 C206.004494,22.8854202 203.213483,22.8417654 200.160814,24.3260286 C196.933708,25.8539465 193.575773,28.5605441 190.479495,32.271202 C184.330549,39.7361726 179.838766,50.2569792 177.004145,56.1940319 C176.262783,57.7656046 173.035676,57.8529142 173.384553,56.4559607 C175.52142,53.3128151 182.32451,39.6925178 184.417768,30.4377004 C186.947122,18.9564883 178.225212,19.8295843 170.72437,24.5006478 C157.859554,32.489476 156.376829,48.4671324 165.01152,48.4671324 C174.169524,48.4671324 179.620718,35.0214543 171.858219,36.0255147 C170.986028,36.1128243 171.334904,35.4143475 171.770999,35.3270379 C182.106462,32.8387144 176.437221,49.2965736 164.880691,49.2965736 C159.342279,49.2965736 154.632447,43.7087594 158.295649,34.8031804 C160.388908,29.7828785 165.229567,25.3737438 170.244665,22.6234914 C177.440241,18.6945595 188.560675,18.0397375 187.252389,28.7788181 C186.859903,32.1402376 185.115521,35.6762763 183.632796,38.9503863 C181.3651,43.8833785 183.022263,40.6965782 183.850844,39.430589 C185.420788,36.9859203 187.426827,34.1920132 189.607304,31.5727252 C192.87802,27.6001385 196.584832,24.020445 199.942767,22.492527 C204.042064,20.5717159 209.013552,20.7026803 208.926333,25.4610534 Z M230.033354,33.580846 C230.861936,31.7473444 231.472469,27.8620673 228.768677,31.6600348 C227.722048,33.144298 226.762638,35.5453119 225.672399,38.0336355 L227.852877,38.0336355 C228.681458,36.5493723 229.42282,35.0214543 230.033354,33.580846 Z M227.285953,38.9940411 L225.236304,38.9940411 C224.320503,41.1331262 223.491922,43.2722114 222.881388,44.8001293 C224.538551,43.0975922 226.021276,41.0894714 227.285953,38.9940411 Z" id="Nathan" fill="#000000"></path>
                <path d="M121.361371,49.288707 C120.040842,51.6365609 118.108519,54.0214753 115.322141,54.0214753 C112.080951,54.0214753 111.908396,51.3583269 112.376763,48.7889702 C111.054216,51.2850979 109.049495,54.0214753 106.064858,54.0214753 C102.872859,54.0214753 102.657057,51.43855 103.098606,48.9060099 C101.680879,51.6189029 99.7350561,54.1099925 96.2835771,54.1099925 C94.1002556,54.1099925 92.1352662,52.64946 92.0915998,49.8611708 C92.0880842,49.6473784 92.0944748,49.4292829 92.1102018,49.207762 C90.7226951,51.70692 88.9125412,54.1099925 86.7206288,54.1099925 C85.1923037,54.1099925 83.096315,53.0477871 84.4063079,48.9317411 C84.7556394,47.7810186 85.5853016,46.2762276 86.8079616,44.2845925 C87.855956,42.5585087 87.0699602,41.3635276 83.707645,44.5501438 C82.2229864,45.9221591 80.0833313,48.4006384 77.5943447,53.3133384 C77.2886797,53.9329582 76.8956818,53.9772168 75.9786868,53.9772168 C75.3236903,54.0214753 74.9306924,53.9772168 74.4940281,54.2427681 C74.7290537,53.7486975 74.9671642,53.2475919 75.2081545,52.7402434 C74.0930939,53.6070755 72.7343067,54.1099925 70.9570472,54.1099925 C67.0959922,54.1099925 66.1068378,51.6149831 66.5354483,48.6650886 C65.210438,51.1706595 63.3100075,53.9329582 61.0447674,53.9329582 C57.7697851,53.9329582 57.7697851,50.4807907 58.6867801,48.1793456 L61.4814317,40.9652006 C61.8307632,40.124288 61.2194331,39.3276339 61.0447674,39.1063411 L63.4464211,39.0620826 C64.8437469,39.0620826 64.8437469,39.5489267 64.3634162,40.6111321 L60.8701017,48.8874826 C60.8701017,48.8874826 60.4334374,49.8611708 60.3461045,50.1709808 C59.9531066,51.6315132 60.0404395,52.8707528 61.2630996,52.9592699 C61.918096,53.0477871 62.7477582,52.5609429 63.2280889,52.1183573 C64.6690812,50.6578249 66.1100734,47.9137943 67.3327335,45.435315 C67.4255551,45.2236343 67.5368746,45.0900732 67.6429356,45.0246683 C68.1565887,43.8735237 68.7941684,42.7764752 69.4723886,41.8503718 C71.0880465,39.6374438 73.2277016,38.3539456 75.3236903,38.3539456 C77.5070118,38.3539456 78.5550062,39.5931853 78.336674,41.4077862 C78.1620083,42.8683186 76.3716846,44.7271781 75.4110232,43.7534898 C75.8913539,43.1781285 76.5463504,42.2929573 76.7646825,41.4963033 C77.1576804,39.9472537 76.7210161,39.3276339 75.8913539,39.3276339 C74.3193624,39.3276339 72.4417059,41.3635276 71.2190458,43.13387 C70.43305,44.2845925 68.8173921,47.338433 68.8173921,49.9054294 C68.8173921,51.6757717 69.516055,53.3133384 71.3937115,53.3133384 C73.5511172,53.3133384 75.1593084,51.92882 76.4662006,50.0919415 C79.5546166,43.5953832 83.0284566,36.3537185 86.5022966,29.8563024 C87.5066245,27.9974429 88.2052874,26.9794961 89.6026132,27.0680132 C90.1702768,27.1122718 90.8252733,27.3335646 91.4366033,27.2450474 C89.5152803,29.2366826 83.8386443,40.0800294 80.257997,47.4712087 C81.4369906,45.9664177 82.6159843,44.5944024 83.7949779,43.5764555 C85.8909666,41.6733375 90.388609,38.8850483 91.8732676,39.416151 C91.8732676,39.416151 87.2009595,47.73676 86.6332959,50.8348591 C86.2839645,52.64946 86.7206288,53.1363042 87.2882924,53.1805627 C89.082232,53.2991453 91.6424294,48.5107213 92.8225194,46.1299164 C93.4327052,44.4924036 94.3743833,42.8779308 95.4539149,41.5848204 C97.6809029,38.9293069 100.999552,37.2474817 102.920875,38.7080141 C104.580199,39.9915123 103.313873,43.0010943 100.519221,45.1697636 C99.1655616,46.1877105 96.3272436,47.1171402 95.1482499,47.1171402 C94.4932535,48.7104483 93.7509241,53.1805627 96.6329086,53.1805627 C100.475554,53.1805627 102.833542,47.9580528 103.83787,45.6123492 C103.885667,45.5033473 103.943274,45.4076023 104.005993,45.325908 C104.008185,45.3180895 104.010366,45.3102998 104.012535,45.3025393 C105.366195,40.3455808 108.11718,33.9723483 110.649833,29.6792682 C113.750149,24.4124997 118.466124,25.0321195 115.322141,32.1134889 C113.313485,36.6721204 110.649833,41.4520447 106.370523,45.3910564 C106.152191,46.1434519 105.715526,47.2056573 105.453528,48.3121213 C104.143535,53.6231483 107.636849,54.3755438 109.95117,51.1004105 C111.392162,49.0202582 112.614822,46.6302961 113.182486,45.4795736 C113.205974,45.4346058 113.230398,45.3926417 113.255478,45.353672 C113.260311,45.3364912 113.265093,45.3194462 113.269819,45.3025393 C114.623478,40.3455808 117.374463,33.9723483 119.907116,29.6792682 C123.007433,24.4124997 127.723407,25.0321195 124.579424,32.1134889 C122.570769,36.6721204 119.907116,41.4520447 115.627806,45.3910564 C115.409474,46.1434519 114.97281,47.2056573 114.710811,48.3121213 C113.400818,53.6231483 116.894133,54.3755438 119.208453,51.1004105 C120.343264,49.462248 121.342668,47.6319449 121.993393,46.3660744 C122.599043,44.6482858 123.579024,42.9400605 124.710424,41.5848204 C126.937412,38.9293069 130.25606,37.2474817 132.177383,38.7080141 C133.836708,39.9915123 132.570381,43.0010943 129.77573,45.1697636 C128.42207,46.1877105 125.583752,47.1171402 124.404759,47.1171402 C123.749762,48.7104483 123.007433,53.1805627 125.889417,53.1805627 C129.732063,53.1805627 132.09005,47.9580528 133.094378,45.6123492 C133.44371,44.8156952 134.317038,44.7271781 133.880374,45.6566078 C132.264716,49.1972925 130.38706,54.1099925 125.540086,54.1099925 C123.356764,54.1099925 121.391775,52.64946 121.348108,49.8611708 C121.345022,49.6734685 121.349571,49.4824492 121.361371,49.288707 Z M59.2544437,58.270297 C60.9137681,58.1817799 60.3024381,59.1554681 58.5557808,58.9784339 C56.7654572,58.8013997 51.0014883,58.0490042 51.7001512,50.5693078 C52.2241484,45.2582808 55.7611293,38.3982042 58.5994473,31.8479375 C62.0927617,23.7043628 57.2457879,24.1469483 49.3858304,34.105124 C46.6348452,37.5572916 39.211552,49.1972925 37.6395604,53.0477871 C35.9802361,56.9425402 32.8362531,55.2164564 33.6659152,53.9329582 C34.3645781,52.4724258 40.6088778,42.82406 42.355535,28.2187357 C43.0541979,22.5093817 39.3425513,22.8191916 35.8929032,27.1565303 C28.2949442,36.716379 26.1116227,42.0716645 20.1293217,55.5262663 C19.4306588,57.163833 16.11201,57.2080916 16.5486743,55.7918177 C20.260321,49.949688 26.1989556,34.9017781 27.2032835,27.687633 C29.6049372,10.0727267 7.77172172,22.4651231 3.53607793,34.2378997 C-0.131902267,44.5501438 5.85039876,49.4185853 11.6143676,47.2941745 C17.2036708,45.1697636 21.3519817,34.1493826 14.4090192,35.0788123 C13.6230235,35.1673294 12.5313627,34.4149339 14.6273514,34.1493826 C21.9196453,33.0871772 21.0026503,44.1518168 11.5707012,48.1350871 C5.10806944,50.8348591 -3.144886,44.328851 1.22175709,33.7953141 C7.50972314,18.9244384 31.3515944,10.1612439 29.7359365,27.7761501 C29.4302714,30.5644393 28.5569428,33.6625384 27.4652821,36.5836033 C26.8976185,38.2654285 27.2906163,38.4867213 28.0329457,37.0704474 C30.5655986,32.4232988 32.0502573,30.1661123 35.1505739,26.3598763 C38.5128891,22.2438303 45.7178502,20.473488 45.0191873,27.9974429 C44.4951901,33.6625384 42.5302007,39.017824 40.739877,44.5501438 C42.5302007,41.7175961 45.805183,37.0261889 49.3858304,32.5118159 C59.4727759,19.7210925 66.0227405,22.5978988 61.001101,32.7773673 C57.2021215,40.4340979 49.0801653,58.7128826 59.2544437,58.270297 Z M66.5030713,35.4328808 C66.3284055,36.4508276 65.4114105,37.2474817 64.4070826,37.2474817 C63.4027547,37.2474817 62.7477582,36.4508276 62.8787575,35.4328808 C63.0534232,34.4149339 64.0140847,33.6182799 64.9747462,33.6182799 C65.9790741,33.6182799 66.677737,34.4149339 66.5030713,35.4328808 Z M100.082557,44.4173682 C103.663204,41.3635276 103.444872,35.609915 98.0739008,42.2044402 C96.9385736,43.6207141 95.8469128,45.5680907 95.4539149,46.3647447 C96.2399107,46.3647447 98.5105651,45.7451249 100.082557,44.4173682 Z M114.667145,31.4496105 C115.540473,29.4137168 115.977137,26.0500664 113.61915,29.4579754 C111.479495,32.5118159 108.073513,40.4340979 106.719854,43.9747826 C109.820171,40.7881664 112.964154,35.5656564 114.667145,31.4496105 Z M123.924428,31.4496105 C124.797756,29.4137168 125.234421,26.0500664 122.876434,29.4579754 C120.736778,32.5118159 117.330797,40.4340979 115.977137,43.9747826 C119.077454,40.7881664 122.221437,35.5656564 123.924428,31.4496105 Z M129.339065,44.4173682 C132.919713,41.3635276 132.70138,35.609915 127.330409,42.2044402 C126.195082,43.6207141 125.103422,45.5680907 124.710424,46.3647447 C125.496419,46.3647447 127.767074,45.7451249 129.339065,44.4173682 Z" id="Michelle" fill="#000000"></path>
            </g>
        </g>
    </g>
</svg>